# xmcd
#
# Track frame offsets:
#	150
#	19205
#	35278
#	52367
#	70875
#	88557
#	104159
#	122613
#	140740
#	156526
#	170132
#	188627
#	206972
#	221594
#
# Disc length: 3125 seconds
#
# Revision: 1
# Processed by: cddbd v1.5.2PL0 Copyright (c) Steve Scherf et al.
# Submitted via: audiograbber 1.83.01
#
DISCID=e00c330e
DTITLE=Various Artist - SD158
DYEAR=2007
DGENRE=Karaoke
TTITLE0=Paisley, Brad - Online
TTITLE1=Evans, Sara - As If
TTITLE2=Keith, Toby - Love Me If You Can 
TTITLE3=Currington, Billy - Tangled Up
TTITLE4=Emerson Drive - You Still Own Me
TTITLE5=Turner, Josh - Firecracker
TTITLE6=Green, Pat - Way Back Texas
TTITLE7=Lawrence, Tracy - Til I Was A Daddy Too
TTITLE8=Shaffer, Lisa - Just One
TTITLE9=Peck, Danielle - Bad For Me
TTITLE10=Black, Clint - Strong One, The
TTITLE11=Krauss, Alison - Simple Love
TTITLE12=Wills, Mark - Days Of Thunder
TTITLE13=Big and Rich - You Shook Me All Night Long
EXTD=
EXTT0=
EXTT1=
EXTT2=
EXTT3=
EXTT4=
EXTT5=
EXTT6=
EXTT7=
EXTT8=
EXTT9=
EXTT10=
EXTT11=
EXTT12=
EXTT13=
PLAYORDER=
